<svg xmlns="http://www.w3.org/2000/svg" width="552" height="432" viewBox="0 0 552 432">
  <path style="stroke:none;stroke-width:1;stroke-dasharray:none;stroke-linecap:butt;stroke-dashoffset:0;stroke-linejoin:miter;stroke-miterlimit:4;fill:#fff;fill-rule:evenodd;opacity:1" vector-effect="non-scaling-stroke" transform="translate(-364 -144)" d="m623.415 376.368-33.953-33.952 33.953-33.953 33.953 33.953c7.089 6.973 18.489 6.879 25.463-.21 6.893-7.009 6.892-18.25-.003-25.256l-33.953-33.947 21.223-21.222-42.44-42.44c-30.202-30.213-77.48-35.04-113.166-11.553l-13.918-14.405A162.94 162.94 0 0 0 384.088 144H364v36.011h20.088a126.7 126.7 0 0 1 90.629 38.412l14.297 14.789c-23.687 35.697-18.938 83.141 11.356 113.435l42.409 42.451 21.223-21.222 33.947 33.952c7.088 6.975 18.488 6.884 25.463-.204 6.895-7.007 6.896-18.248.003-25.256m272.828 163.611a125.3 125.3 0 0 1-87.593-35.45l-16.409-15.885c23.461-35.699 18.635-82.979-11.555-113.194L738.263 333 611 460.356l42.423 42.45c30.283 30.299 77.709 35.047 113.392 11.353l16.799 16.263A161.13 161.13 0 0 0 896.243 576H916v-36.021Z"/>
</svg>
